HIERARCHY
ROOT Hips
{
    OFFSET 0.0 0.0 0.0
    CHANNELS 6 Xposition Yposition Zposition Zrotation Xrotation Yrotation
    JOINT LHipJoint
    {
        OFFSET 0.1 0.0 0.0
        CHANNELS 3 Zrotation Xrotation Yrotation
        JOINT LeftHip
        {
            OFFSET 0.12237933278083801 0.0 0.0
            CHANNELS 3 Zrotation Xrotation Yrotation
            JOINT LeftKnee
            {
                OFFSET 0.0 0.0 -0.43049246072769165
                CHANNELS 3 Zrotation Xrotation Yrotation
                JOINT LeftAnkle
                {
                    OFFSET 0.0 0.0 -0.44070491194725037
                    CHANNELS 3 Zrotation Xrotation Yrotation
                    End Site
                    {
                        OFFSET 0.0 -0.1 0.0
                    }
                }
            }
        }
    }
    JOINT lowerback
    {
        OFFSET 0.0 0.0 0.1
        CHANNELS 3 Zrotation Xrotation Yrotation
        JOINT Chest
        {
            OFFSET 0.0 0.0 0.23130281269550323
            CHANNELS 3 Zrotation Xrotation Yrotation
            JOINT Chest2
            {
                OFFSET 0.0 0.0 0.2586175799369812
                CHANNELS 3 Zrotation Xrotation Yrotation
                JOINT LeftCollar
                {
                    OFFSET 0.1 0.0 0.0
                    CHANNELS 3 Zrotation Xrotation Yrotation
                    JOINT LeftShoulder
                    {
                        OFFSET 0.140056312084198 0.0 0.0
                        CHANNELS 3 Zrotation Xrotation Yrotation
                        JOINT LeftElbow
                        {
                            OFFSET 0.2676364779472351 0.0 0.0
                            CHANNELS 3 Zrotation Xrotation Yrotation
                            JOINT LeftWrist
                            {
                                OFFSET 0.22626103460788727 0.0 0.0
                                CHANNELS 3 Zrotation Xrotation Yrotation
                                End Site
                                {
                                    OFFSET 0.1 0.0 0.0
                                }
                            }
                        }
                    }
                }
                JOINT Neck
                {
                    OFFSET 0.0 0.0 0.1
                    CHANNELS 3 Zrotation Xrotation Yrotation
                    JOINT Head
                    {
                        OFFSET 0.0 0.0 0.11356215924024582
                        CHANNELS 3 Zrotation Xrotation Yrotation
                        End Site
                        {
                            OFFSET 0.0 0.0 0.11753275245428085
                        }
                    }
                }
                JOINT RightCollar
                {
                    OFFSET -0.1 0.0 0.0
                    CHANNELS 3 Zrotation Xrotation Yrotation
                    JOINT RightShoulder
                    {
                        OFFSET -0.140056312084198 0.0 0.0
                        CHANNELS 3 Zrotation Xrotation Yrotation
                        JOINT RightElbow
                        {
                            OFFSET -0.2676364779472351 0.0 0.0
                            CHANNELS 3 Zrotation Xrotation Yrotation
                            JOINT RightWrist
                            {
                                OFFSET -0.22626103460788727 0.0 0.0
                                CHANNELS 3 Zrotation Xrotation Yrotation
                                End Site
                                {
                                    OFFSET -0.1 0.0 0.0
                                }
                            }
                        }
                    }
                }
            }
        }
    }
    JOINT RHipJoint
    {
        OFFSET -0.1 0.0 0.0
        CHANNELS 3 Zrotation Xrotation Yrotation
        JOINT RightHip
        {
            OFFSET -0.12237933278083801 0.0 0.0
            CHANNELS 3 Zrotation Xrotation Yrotation
            JOINT RightKnee
            {
                OFFSET 0.0 0.0 -0.43049246072769165
                CHANNELS 3 Zrotation Xrotation Yrotation
                JOINT RightAnkle
                {
                    OFFSET 0.0 0.0 -0.44070491194725037
                    CHANNELS 3 Zrotation Xrotation Yrotation
                    End Site
                    {
                        OFFSET 0.0 -0.1 0.0
                    }
                }
            }
        }
    }
}
MOTION
Frames: 4
Frame Time: 0.03333333333333333
-4.1269731809734367e-07 0.8876838088035583 -3.851862857118249e-06 -92.99980054210873 -43.20446607000503 -94.81907957515979 0.0 0.0 3.1805546814635164e-15 -0.11650333865910613 -2.1148392980695774 -2.8612662834417772 0.09054510924782595 15.122990120993848 -3.0660398009706746 6.361109362927033e-15 7.95138670365879e-15 -4.413906298050159e-31 0.0 0.0 3.1805546814635164e-15 0.30826607523075283 5.4776922967923465 4.862569982873012 -3.3689246591630875 -3.713458099906472e-06 -7.441492626499004e-07 3.1805546814635168e-15 8.827812596100317e-32 3.1805546814635168e-15 -10.72810994396632 12.463906790065097 64.76955476289658 -35.85686204537539 8.421418501763304e-07 3.044295114766403e-06 -6.3611093629270335e-15 -3.1805546814635168e-15 -1.7655625192200634e-31 3.1805546814635168e-15 8.827812596100317e-32 3.1805546814635168e-15 0.7433469935606697 -2.728810684742882 -8.240095321805049 3.1805546814635168e-15 8.827812596100317e-32 3.1805546814635168e-15 -17.525552125037542 -33.88372167028767 -32.90344111156843 67.11643558089659 6.703443321260774e-06 -1.1545560565380819e-06 -1.1927080055488186e-15 9.939233379573489e-17 1.034509288605506e-33 0.0 0.0 3.1805546814635164e-15 -0.24517024622708564 -4.310640088834819 -0.5005419506866973 0.6572516445657578 13.493214462897722 -3.3143609673329624 -3.1805546814635176e-15 -7.951386703658793e-15 -2.2069531490250793e-31
-4.625053406925872e-07 0.8876830339431763 -3.3790238376241177e-06 -92.40780577238164 -43.4869748987138 -94.90376761435516 0.0 0.0 0.0 -0.12518262493533616 -2.521880660775084 -2.4709906602409215 0.10879097093894863 14.936269266748514 -1.793623886659216 -3.1805546814635168e-15 -8.827812596100317e-32 3.1805546814635168e-15 0.0 0.0 0.0 0.25544182236893287 5.042553930846141 4.504059999259575 -3.2319463291107193 -2.543625769929266e-06 -1.2149194028063714e-06 3.1805546814635168e-15 7.951386703658792e-15 -3.1805546814635168e-15 -9.074982154851376 12.658361341214365 63.93923537909526 -34.139156686323744 3.673199760028088e-06 2.4044760505960246e-06 0.0 0.0 -3.1805546814635168e-15 3.1805546814635168e-15 7.951386703658792e-15 -3.1805546814635168e-15 -0.18610618154136446 -2.4867424062716723 -7.584712153769079 3.1805546814635168e-15 7.951386703658792e-15 -3.1805546814635168e-15 -19.02596345383184 -32.48705274485783 -34.200440937516554 65.49716285295081 1.423140014454631e-06 2.6537429337507583e-07 -2.3854160110976376e-15 0.0 0.0 0.0 0.0 0.0 -0.25282128671371684 -4.931647533499314 0.5195446154835025 0.8357044882353637 13.640881547868814 -3.3729513947476537 6.361109362927033e-15 0.0 0.0
-2.2383937903214246e-07 0.8876828551292419 -3.0848823371343315e-06 -91.82826878108243 -44.13419073904896 -94.8135772090671 -3.1805546814635168e-15 0.0 0.0 -0.14572882289346747 -3.061365980421941 -2.228209404435052 0.14110649726100563 15.0499196342833 -0.9814451902797283 -3.1805546814635168e-15 0.0 0.0 -3.1805546814635168e-15 0.0 0.0 0.22637012708730075 4.676120233046462 3.8349905257082386 -3.422046910634163 -4.302527494971065e-07 -3.159825693499682e-06 4.4139062980501586e-32 -1.590277340731758e-15 3.180554681463516e-15 -7.6068480997493815 13.260485881864623 62.97826202628239 -33.07167234872825 -1.0039880067245826e-06 -5.043792041255447e-07 0.0 -3.1805546814635168e-15 0.0 4.4139062980501586e-32 -1.590277340731758e-15 3.180554681463516e-15 -0.942172373921046 -2.595518837949217 -6.697400839083955 4.4139062980501586e-32 -1.590277340731758e-15 3.180554681463516e-15 -22.358310962417963 -30.596810965932065 -37.63772475176476 65.14494366076731 5.009759127411494e-06 2.2124013282591382e-06 -3.975693351829396e-16 2.758691436281349e-33 -7.951386703658792e-16 -3.1805546814635168e-15 0.0 0.0 -0.2837611739875951 -5.791490493555895 0.9780740896427502 0.9480184872331064 14.08049296138312 -3.299946263186118 0.0 0.0 0.0
-7.310568435059395e-07 0.8876817226409912 -2.746113750617951e-06 -91.43523033706168 -43.86689216854622 -94.67011036487766 3.1805546814635168e-15 1.5902773407317584e-15 -3.1805546814635168e-15 -0.14808432554601392 -3.0161632459675607 -1.8631453548992316 0.2508755963786789 14.34766569163713 -0.6515327464035031 3.1805546814635168e-15 -6.3611093629270335e-15 -3.1805546814635168e-15 3.1805546814635168e-15 1.5902773407317584e-15 -3.1805546814635168e-15 0.23189550455013133 4.638477662754615 3.0632493341456515 -3.2612316892133215 -2.123830130633723e-06 -1.137584224599556e-06 0.0 0.0 0.0 -6.609846361303356 13.555234558849186 61.26269951546076 -31.940621089395734 -4.771650929876241e-06 -5.538978012285211e-07 -1.2722218725854067e-14 -3.531125038440127e-31 3.1805546814635168e-15 0.0 0.0 0.0 -1.0329431218869818 -2.019985814011903 -6.138054088277951 0.0 0.0 0.0 -23.52614784789202 -26.90627593864364 -40.11891061707902 64.66583481538011 -3.1593401754434325e-06 3.0325674278404944e-06 3.9756933518293955e-16 2.758691436281349e-33 7.951386703658791e-16 3.1805546814635168e-15 1.5902773407317584e-15 -3.1805546814635168e-15 -0.29678831502273356 -5.862446783301795 1.4681444653922944 1.0836574018324248 13.946541979842971 -3.4844457471994956 0.0 0.0 0.0
